<svg class="w-10 h-10 lg:w-12 lg:h-12 text-blueRyb" aria-hidden="true" viewBox="0 0 48 48" fill="none" xmlns="http://www.w3.org/2000/svg">
<path d="M4 18.2073V10.2432C4 9.15175 4.61144 8.15401 5.57939 7.66591L12.2461 4.3042C13.0504 3.8986 13.9972 3.8986 14.8016 4.3042L21.4682 7.66591C22.4362 8.15401 23.0476 9.15175 23.0476 10.2432V18.2073C23.0476 19.2988 22.4362 20.2965 21.4682 20.7846L14.8016 24.1463C13.9972 24.5519 13.0504 24.5519 12.2461 24.1463L5.57939 20.7846C4.61144 20.2965 4 19.2988 4 18.2073ZM6.95769 10.434C6.72246 10.9085 6.91315 11.4854 7.38361 11.7226L12.5714 14.3386V19.9882C12.5714 20.5186 12.9978 20.9487 13.5238 20.9487C14.0498 20.9487 14.4762 20.5186 14.4762 19.9882V14.3386L19.664 11.7226C20.1345 11.4854 20.3252 10.9085 20.0899 10.434C19.8547 9.95954 19.2826 9.76723 18.8122 10.0045L13.5238 12.6712L8.23544 10.0045C7.76499 9.76723 7.19292 9.95954 6.95769 10.434ZM24.1004 7.50147C24.6449 8.29153 24.9524 9.24361 24.9524 10.2428V18.207C24.9524 20.026 23.9333 21.6889 22.3201 22.5024L15.6534 25.8641C14.3128 26.5401 12.7348 26.5401 11.3942 25.8641L5.90476 23.096V34.8754C5.90476 37.1263 7.61097 38.9754 9.79024 39.179C10.236 41.9137 12.5907 44 15.4286 44C18.26 44 20.6104 41.9231 21.0638 39.1976H25.0314C25.4848 41.9231 27.8352 44 30.6667 44C33.4981 44 35.8485 41.9231 36.3019 39.1976H39.7143C42.0812 39.1976 44 37.2625 44 34.8754V24.4777C44 23.8377 43.8591 23.2058 43.5874 22.6274L40.3508 15.7363C39.6418 14.2268 38.1338 13.2644 36.4776 13.2644H33.5238V11.8237C33.5238 9.43658 31.605 7.50147 29.2381 7.50147H24.1004ZM38.7619 31.5138H41.1429V34.3952H38.7619C37.9729 34.3952 37.3333 33.7502 37.3333 32.9545C37.3333 32.1588 37.9729 31.5138 38.7619 31.5138ZM37.7687 16.9698L40.5396 22.8693L33.5238 22.8693V16.1459H36.4776C37.0297 16.1459 37.5323 16.4667 37.7687 16.9698ZM18.2857 38.2371C18.2857 39.8285 17.0065 41.1185 15.4286 41.1185C13.8506 41.1185 12.5714 39.8285 12.5714 38.2371C12.5714 36.6457 13.8506 35.3556 15.4286 35.3556C17.0065 35.3556 18.2857 36.6457 18.2857 38.2371ZM30.6667 35.3556C32.2446 35.3556 33.5238 36.6457 33.5238 38.2371C33.5238 39.8285 32.2446 41.1185 30.6667 41.1185C29.0887 41.1185 27.8095 39.8285 27.8095 38.2371C27.8095 36.6457 29.0887 35.3556 30.6667 35.3556Z" fill="#0D47F8"></path>
</svg>