<svg class="w-10 h-10 lg:w-12 lg:h-12 text-blueRyb" aria-hidden="true" viewBox="0 0 48 48" fill="none" xmlns="http://www.w3.org/2000/svg">
<path d="M20.1485 6.26211C20.3487 6.33023 20.5444 6.41127 20.7342 6.50471L23.0173 7.62878C23.6369 7.93386 24.3631 7.93386 24.9827 7.62878L27.2658 6.50471C29.6911 5.31066 32.6251 6.30873 33.8191 8.73397L33.9499 9.02288L34.0617 9.31966L34.8813 11.7289C35.1037 12.3828 35.6172 12.8963 36.2711 13.1187L38.6803 13.9383C41.2396 14.8088 42.6085 17.5892 41.7379 20.1485C41.6698 20.3487 41.5887 20.5444 41.4953 20.7342L40.3712 23.0173C40.0661 23.6369 40.0661 24.3631 40.3712 24.9827L41.4953 27.2658C42.6893 29.6911 41.6913 32.6251 39.266 33.8191C39.0762 33.9126 38.8806 33.9936 38.6803 34.0617L36.2711 34.8813C35.6172 35.1037 35.1037 35.6172 34.8813 36.2711L34.0617 38.6803C33.1912 41.2396 30.4108 42.6085 27.8515 41.7379C27.6513 41.6698 27.4556 41.5887 27.2658 41.4953L24.9827 40.3712C24.3631 40.0661 23.6369 40.0661 23.0173 40.3712L20.7342 41.4953C18.3089 42.6893 15.3749 41.6913 14.1809 39.266C14.0874 39.0762 14.0064 38.8806 13.9383 38.6803L13.1187 36.2711C12.8963 35.6172 12.3828 35.1037 11.7289 34.8813L9.31966 34.0617C6.76044 33.1912 5.39153 30.4108 6.26211 27.8515C6.33023 27.6513 6.41127 27.4556 6.50471 27.2658L7.62878 24.9827C7.93386 24.3631 7.93386 23.6369 7.62878 23.0173L6.50471 20.7342C5.31066 18.3089 6.30873 15.3749 8.73397 14.1809C8.92375 14.0874 9.11939 14.0064 9.31966 13.9383L11.7289 13.1187C12.3828 12.8963 12.8963 12.3828 13.1187 11.7289L13.9383 9.31966C14.8088 6.76044 17.5892 5.39153 20.1485 6.26211ZM30.1756 18.6064L20.53 28.252L17.0161 24.0354C16.5441 23.469 15.7023 23.3925 15.136 23.8644C14.5696 24.3364 14.4931 25.1782 14.9651 25.7445L19.4147 31.0841C19.9173 31.6872 20.8291 31.7285 21.3842 31.1735L32.0634 20.4942C32.5847 19.9729 32.5847 19.1277 32.0634 18.6064C31.5421 18.0851 30.6969 18.0851 30.1756 18.6064Z" fill="#0D47F8"></path>
</svg>