<svg class="w-full h-full" width="24" height="24" viewBox="0 0 29 28" fill="currentColor" xmlns="http://www.w3.org/2000/svg"><path d="M19.221 2.33337H9.44435C5.19768 2.33337 2.66602 4.86504 2.66602 9.11171V18.8767C2.66602 23.135 5.19768 25.6667 9.44435 25.6667H19.2093C23.456 25.6667 25.9877 23.135 25.9877 18.8884V9.11171C25.9993 4.86504 23.4677 2.33337 19.221 2.33337ZM18.9993 14.875H9.66602C9.18768 14.875 8.79102 14.4784 8.79102 14C8.79102 13.5217 9.18768 13.125 9.66602 13.125H18.9993C19.4777 13.125 19.8743 13.5217 19.8743 14C19.8743 14.4784 19.4777 14.875 18.9993 14.875Z" fill="#1F2128"></path></svg>