<svg class="w-8 h-w-8" width="33" height="33" viewBox="0 0 33 33" fill="none" xmlns="http://www.w3.org/2000/svg"><rect x="0.5" y="0.500122" width="32" height="32" rx="16" fill="#0D47F8"></rect><path d="M12 15.0001C12 12.5148 14.0147 10.5001 16.5 10.5001C18.9853 10.5001 21 12.5148 21 15.0001V16.9038L21.9642 19.3144C22.0259 19.4685 22.0071 19.6431 21.914 19.7804C21.821 19.9178 21.6659 20.0001 21.5 20.0001H11.5C11.3341 20.0001 11.179 19.9178 11.086 19.7804C10.993 19.643 10.9741 19.4685 11.0358 19.3144L12 16.9038V15.0001ZM14.5625 21.0001C14.7833 21.8648 15.5644 22.5001 16.5 22.5001C17.4356 22.5001 18.2167 21.8648 18.4375 21.0001H14.5625Z" fill="white"></path></svg>