<svg width="24" height="24" viewBox="0 0 24 24" fill="none" xmlns="http://www.w3.org/2000/svg">
<path d="M7.77111 2.43923L8.8477 2.09522C9.85652 1.77287 10.9344 2.29382 11.3664 3.31256L12.2261 5.33991C12.6008 6.22336 12.3929 7.26227 11.7121 7.9084L9.81783 9.70641C9.93471 10.7819 10.2962 11.8409 10.9024 12.8834C11.5085 13.9259 12.2655 14.7907 13.1734 15.4778L15.4486 14.7191C16.311 14.4315 17.2502 14.762 17.7792 15.5392L19.0116 17.3498C19.6265 18.2532 19.5159 19.4995 18.7529 20.2655L17.9352 21.0865C17.1212 21.9036 15.9587 22.2 14.8833 21.8645C12.3444 21.0726 10.0101 18.7214 7.88034 14.8109C5.74747 10.8947 4.99472 7.57214 5.6221 4.84313C5.88609 3.69482 6.70361 2.78033 7.77111 2.43923Z" fill="#0D47F8"/>
</svg>
